<svg id="Capa_1" data-name="Capa 1" xmlns="http://www.w3.org/2000/svg" viewBox="0 0 800.12 533.57"><defs><style>.cls-1{fill:#fff;}.cls-2{fill:#ccc;}.cls-3{fill:#f5aa8b;}.cls-4{fill:#090814;}.cls-5{fill:#f47c42;}.cls-6{fill:#3f3d56;}.cls-7{fill:#2f2e41;}.cls-8{fill:#f8f5f0;}.cls-10,.cls-9{fill:#ff6584;}.cls-9{opacity:0.74;}.cls-11,.cls-14,.cls-9{isolation:isolate;}.cls-11,.cls-14{opacity:0.21;}.cls-12{fill:#6c63ff;}.cls-13{fill:#e4e4e4;}.cls-14{fill:#7a7674;}.cls-15{fill:#e95609;}</style></defs><path class="cls-1" d="M26,282.46A20.66,20.66,0,0,1,.14,275.51c-.56-.82.69-1.73,1.25-.91A19.14,19.14,0,0,0,25.44,281c.89-.43,1.43,1,.54,1.44Z" transform="translate(0 0)"/><path class="cls-1" d="M11.12,240.09a11.68,11.68,0,0,0,8.27-7.4c.34-.94,1.74-.3,1.4.63a13.09,13.09,0,0,1-9.13,8.21.79.79,0,0,1-1-.44.77.77,0,0,1,.45-1Z" transform="translate(0 0)"/><path class="cls-2" d="M572.89,479.13H212.16a24.73,24.73,0,0,0-24.71,24.71,24.38,24.38,0,0,0,1.78,9.2,24.72,24.72,0,0,0,22.93,15.53H572.89a24.74,24.74,0,0,0,21.33-12.25,23.72,23.72,0,0,0,1.61-3.28,24.41,24.41,0,0,0,1.78-9.2,24.76,24.76,0,0,0-24.72-24.72Z" transform="translate(0 0)"/><rect class="cls-3" x="367.72" y="253.94" width="52.54" height="61.76"/><path class="cls-2" d="M386.12,214.08h5.49a10.07,10.07,0,0,1,10.07,10.07H376.05a10.07,10.07,0,0,1,10.07-10.07Z" transform="translate(0 0)"/><circle class="cls-3" cx="394.15" cy="214.47" r="56.74"/><path class="cls-4" d="M330.85,159.89c.43-6.51,4.74-13.18,18.43-16.67,0,0,23.49-30,55.42-14.28,0,0,15.48-2.67,26.95,13.4,0,0,11.38-6.71,16.18,5.18,0,0,13.35,24.26,8.43,49s-7.42,27.84-7.42,27.84,6.26-51.19-29.81-47.64-65.11-9.14-73.28,18.64c-6.78,23.06-5.93,35-5.93,35s-22.68-23-15-41.12C328.8,180,330.19,169.94,330.85,159.89Z" transform="translate(0 0)"/><path class="cls-5" d="M239.85,524.54H553.68c-2.1-23.94-3.46-115.45-3.46-121.47,0-26.56-21.74-55.55-21.74-55.55l-7.78-4.3-65-20.27-16.82-21.84a18.71,18.71,0,0,0-15-7.32l-53.12.4a18.78,18.78,0,0,0-12.6,5L325.33,329.7l-48.24,23-.08-.08-.5.38-7.16,5.15-4.6,3.33S252.66,376,243,419.48C241.55,426,240.53,510.66,239.85,524.54Z" transform="translate(0 0)"/><path class="cls-2" d="M626.32,513c-.75.69-1.52,1.37-2.28,2.05q-4.34,3.85-8.8,7.59-6.75,5.61-13.77,10.9H179q-12.9-9.69-24.86-20.55Z" transform="translate(0 0)"/><path class="cls-4" d="M471.46,518H316.16l3.28-15.61H468.17Z" transform="translate(0 0)"/><path class="cls-4" d="M612,450.59H571.55a6.28,6.28,0,0,0-4.79,2.22,8.85,8.85,0,0,0-1.71-.16,9.59,9.59,0,0,0,0,19.17h0a9.46,9.46,0,0,0,4.18-1l.67,8.28,2.68,32.74a6.1,6.1,0,0,0,.51,1.17,6.28,6.28,0,0,0,5.53,3.29H604.9a6.31,6.31,0,0,0,5.54-3.29,7.1,7.1,0,0,0,.5-1.17l7.07-53.1a6.33,6.33,0,0,0-4.19-7.9,6.43,6.43,0,0,0-1.85-.28Zm-46.91,18.49a6.85,6.85,0,1,1,0-13.7c.12,0,.23,0,.36,0a6.25,6.25,0,0,0,.1,3.35l2.89,9.4a6.82,6.82,0,0,1-3.35.91Z" transform="translate(0 0)"/><path class="cls-6" d="M520.69,276.85H264.88a8.32,8.32,0,0,0-8.3,8.29V457.77a8.32,8.32,0,0,0,8.3,8.29H520.69a8.3,8.3,0,0,0,8.29-8.29V285.14a8.3,8.3,0,0,0-8.29-8.29Z" transform="translate(0 0)"/><path class="cls-4" d="M421.59,415.17H361.75a3.19,3.19,0,0,0-3.19,3.2h0v94.54h66.23V418.37a3.19,3.19,0,0,0-3.19-3.2Zm-29.72,53.72a7.11,7.11,0,0,1-7.07-7.07v-10.9a7.07,7.07,0,0,1,14.14,0v10.9a7.1,7.1,0,0,1-7.07,7.07Z" transform="translate(0 0)"/><path class="cls-6" d="M358.35,509.88V519a1.79,1.79,0,0,0,1.79,1.78h63.07A1.79,1.79,0,0,0,425,519v-9.12Z" transform="translate(0 0)"/><circle class="cls-7" cx="515.25" cy="451.92" r="4.04"/><path class="cls-7" d="M297.17,446.07a1.41,1.41,0,0,0-1.41,1.41h0v7.27a1.41,1.41,0,1,0,2.82,0v-7.27a1.41,1.41,0,0,0-1.41-1.41Z" transform="translate(0 0)"/><path class="cls-7" d="M304.84,446.07a1.41,1.41,0,0,0-1.41,1.41h0v7.27a1.42,1.42,0,1,0,2.83,0v-7.27a1.41,1.41,0,0,0-1.42-1.41Z" transform="translate(0 0)"/><path class="cls-7" d="M312.52,446.07a1.41,1.41,0,0,0-1.41,1.41h0v7.27a1.42,1.42,0,1,0,2.83,0v-7.27a1.42,1.42,0,0,0-1.42-1.41Z" transform="translate(0 0)"/><path class="cls-7" d="M320.19,446.07a1.41,1.41,0,0,0-1.41,1.41h0v7.27a1.42,1.42,0,1,0,2.83,0v-7.27a1.41,1.41,0,0,0-1.42-1.41Z" transform="translate(0 0)"/><circle class="cls-3" cx="326.32" cy="492.49" r="21.36"/><circle class="cls-3" cx="475.57" cy="496.6" r="21.36"/><path class="cls-5" d="M757.85,186.87c-2.11-3.49-4.61-7.22-8.53-8.36-4.53-1.32-9.2,1.3-13.15,3.89a383.67,383.67,0,0,0-34.1,25.13v.13c8.49-.58,15.53,22,24,21.39,6.13-.42,13.91-24,19.33-26.94,2.05-1.1,4.06-2.57,6.39-2.68,2.89-.12,5.41,1.9,7.4,4C770.94,215.93,774.33,235,787.49,246a418.65,418.65,0,0,0-29.63-59.13Z" transform="translate(0 0)"/><path class="cls-8" d="M780.43,217.2q9.29,16.77,19.69,32.86h0c0,.38-.1.76-.16,1.14-.84-1.29-1.67-2.57-2.49-3.87q-9.35-14.65-17.76-29.86-4-7.24-7.79-14.59-2.92-5.7-5.74-11.45c-.53-1.1-1-2.2-1.57-3.32-1.22-2.6-2.42-5.21-3.7-7.77-1.46-2.92-3.25-6-5.93-7.94a8,8,0,0,0-4.22-1.63,11.72,11.72,0,0,0-6.1,1.75A196,196,0,0,0,706,199.18,200.94,200.94,0,0,0,674.63,234c-.28.39-.94,0-.66-.39,1.11-1.56,2.23-3.1,3.38-4.63A202.37,202.37,0,0,1,729,180.84q5-3.24,10.23-6.2c1.75-1,3.51-2,5.3-2.89a13,13,0,0,1,5.62-1.74c6.82-.11,10.35,7.62,12.78,12.81q1.13,2.46,2.31,4.9,4.42,9.24,9.19,18.34Q777.36,211.67,780.43,217.2Z" transform="translate(0 0)"/><path class="cls-8" d="M705.34,195.36,704.15,194c-3.14-3.48-6.51-6.92-10.83-8.91a15.83,15.83,0,0,0-6.59-1.53,19,19,0,0,0-6.84,1.49c-1,.41-2,.88-3,1.38s-2.25,1.17-3.36,1.79q-3.12,1.73-6.16,3.6-6,3.73-11.71,8c-2,1.49-3.87,3-5.75,4.61s-3.46,3-5.13,4.54c-.36.34-.9-.2-.54-.53l1.34-1.22q1.89-1.71,3.84-3.36,3.57-3,7.31-5.78,5.82-4.32,12-8c2.08-1.25,4.18-2.43,6.31-3.57.64-.34,1.3-.68,1.95-1a30.21,30.21,0,0,1,4.65-1.89,16.49,16.49,0,0,1,7-.69,18.2,18.2,0,0,1,6.47,2.24c4.24,2.37,7.53,6,10.73,9.61C706.2,195.19,705.67,195.72,705.34,195.36Z" transform="translate(0 0)"/><path class="cls-5" d="M674.32,212.09a4.82,4.82,0,0,1-3-.87c-2.34-1.77-2.28-6,.19-13.05a14.74,14.74,0,0,1,8-8.57,13.63,13.63,0,0,1,11-.06l.9.42h0a32.52,32.52,0,0,1,5.62,4,37.69,37.69,0,0,0,4.68,3.46l.55.32-.52.37C688.37,207.46,679.35,212.09,674.32,212.09Z" transform="translate(0 0)"/><path class="cls-8" d="M725.51,156.32A18.9,18.9,0,0,1,707,141.09,18.9,18.9,0,1,0,729.26,156,18.92,18.92,0,0,1,725.51,156.32Z" transform="translate(0 0)"/><circle class="cls-8" cx="155.3" cy="129.53" r="28.2"/><circle class="cls-9" cx="183.5" cy="129.53" r="28.2"/><circle class="cls-5" cx="169.64" cy="107.05" r="28.2"/><rect class="cls-6" x="169.45" y="110.32" width="75.93" height="1.64" transform="matrix(0.95, -0.3, 0.3, 0.95, -23.78, 67.27)"/><path class="cls-10" d="M630,21.78h-.47a9.43,9.43,0,0,1,4.2,1h-2.13a8.67,8.67,0,0,0-8.66,8.66V54.37A8.66,8.66,0,0,0,631.59,63h1.35a9.32,9.32,0,0,1-3.42.65H630a9.49,9.49,0,0,0,9.48-9.48V31.26A9.49,9.49,0,0,0,630,21.78Z" transform="translate(0 0)"/><path class="cls-11" d="M630,21.78h-.47a9.43,9.43,0,0,1,4.2,1h-2.13a8.67,8.67,0,0,0-8.66,8.66V54.37A8.66,8.66,0,0,0,631.59,63h1.35a9.32,9.32,0,0,1-3.42.65H630a9.49,9.49,0,0,0,9.48-9.48V31.26A9.49,9.49,0,0,0,630,21.78Z" transform="translate(0 0)"/><path class="cls-12" d="M631.68,63.11A8.67,8.67,0,0,1,623,54.45v-23a8.67,8.67,0,0,1,8.66-8.66h2.13a9.43,9.43,0,0,0-4.2-1H606.67a9.5,9.5,0,0,0-9.49,9.48V54.27a9.5,9.5,0,0,0,9.49,9.49h22.94a9.41,9.41,0,0,0,3.43-.65Z" transform="translate(0 0)"/><path class="cls-10" d="M631.68,63.11A8.67,8.67,0,0,1,623,54.45v-23a8.67,8.67,0,0,1,8.66-8.66h2.13a9.43,9.43,0,0,0-4.2-1H606.67a9.5,9.5,0,0,0-9.49,9.48V54.27a9.5,9.5,0,0,0,9.49,9.49h22.94a9.41,9.41,0,0,0,3.43-.65Z" transform="translate(0 0)"/><circle class="cls-6" cx="243.85" cy="99.49" r="3.29"/><path class="cls-8" d="M778.44,260.22c4.82,3.39,9.44,6.85,14.73,9.47l-.3,1.21c-.65-.3-1.28-.62-1.91-.95-5.37-2.81-10-6.63-15-9.95a32.53,32.53,0,0,0-8.1-4.06,26.87,26.87,0,0,0-9.26-1.09c-13,.64-24.22,8.43-36.34,12.35-5.93,1.92-12.24,2.95-18.43,1.74s-11.69-4.5-17.15-7.47-11.27-5.9-17.56-5.9c-5.13,0-10.52,2.06-13.26,6.6a.62.62,0,1,1-1.06-.63,13.13,13.13,0,0,1,2.24-2.8c3.58-3.39,8.85-4.73,13.69-4.33,6.26.5,12,3.46,17.39,6.44,5.74,3.15,11.63,6.55,18.27,7.24s13-1,19.12-3.34c11.78-4.48,23.4-11.94,36.5-11.11C768.16,254,773.45,256.71,778.44,260.22Z" transform="translate(0 0)"/><path class="cls-5" d="M339.05,13.29V15a8.52,8.52,0,0,0-1.67-.17h-8.6V33.25a10.32,10.32,0,0,1-10.3,10.3H305.77v2.84a8.6,8.6,0,0,0,.67,3.32h-1.76a10.14,10.14,0,0,1-.55-3.32V43.55h-7V41.91h7V23.45a10.3,10.3,0,0,1,10.3-10.29h12.7V10.27h1.64v2.88h8.6a10.39,10.39,0,0,1,1.68.14Z" transform="translate(0 0)"/><path class="cls-8" d="M318.48,0H295.54a10.31,10.31,0,0,0-10.3,10.3V33.24a10.3,10.3,0,0,0,10.3,10.3h22.94a10.31,10.31,0,0,0,10.3-10.3v-23A10.32,10.32,0,0,0,318.48,0Zm8.66,33.25a8.68,8.68,0,0,1-8.66,8.66H295.54a8.68,8.68,0,0,1-8.67-8.66V10.31a8.68,8.68,0,0,1,8.67-8.66h22.94a8.66,8.66,0,0,1,8.66,8.62Z" transform="translate(0 0)"/><path class="cls-8" d="M304.13,41.91v1.64h1.64V41.91Zm0,0v1.64h1.64V41.91Zm34.92-28.62a10.36,10.36,0,0,0-1.67-.14H314.44a10.3,10.3,0,0,0-10.3,10.3V46.39a9.88,9.88,0,0,0,.55,3.32,10.3,10.3,0,0,0,9.75,7h22.94a10.31,10.31,0,0,0,10.3-10.3V23.45a10.3,10.3,0,0,0-8.63-10.16Zm7,33.11a8.68,8.68,0,0,1-8.66,8.66H314.44a8.68,8.68,0,0,1-8.67-8.66V23.45a8.68,8.68,0,0,1,8.67-8.66h22.94A8.67,8.67,0,0,1,346,23.45Zm-41.91-4.49v1.64h1.65V41.91Z" transform="translate(0 0)"/><path class="cls-5" d="M127.48,212.07H47.08A2.13,2.13,0,0,0,45,214.18V219a288.69,288.69,0,0,0,9.62,30h72.9a2.1,2.1,0,0,0,2.1-2.11h0V214.18A2.11,2.11,0,0,0,127.48,212.07Z" transform="translate(0 0)"/><path class="cls-13" d="M119.82,259.5H58.88Q60,262,61.11,264.57h58.71C123.13,264.62,123.09,259.46,119.82,259.5Z" transform="translate(0 0)"/><path class="cls-13" d="M119.82,271.12H64.17c.81,1.7,1.65,3.39,2.5,5.07h53.15C123.13,276.24,123.09,271.08,119.82,271.12Z" transform="translate(0 0)"/><path class="cls-13" d="M119.82,282.75H70.1c.9,1.7,1.84,3.38,2.79,5.07h46.93C123.13,287.86,123.09,282.7,119.82,282.75Z" transform="translate(0 0)"/><path class="cls-6" d="M569.18,21.78h-.47a9.4,9.4,0,0,1,4.2,1h-2.13a8.67,8.67,0,0,0-8.66,8.66V54.37A8.66,8.66,0,0,0,570.78,63h1.36a9.37,9.37,0,0,1-3.43.65h.47a9.48,9.48,0,0,0,9.48-9.48V31.26a9.49,9.49,0,0,0-9.48-9.48Z" transform="translate(0 0)"/><path class="cls-14" d="M569.18,21.78h-.47a9.4,9.4,0,0,1,4.2,1h-2.13a8.67,8.67,0,0,0-8.66,8.66V54.37A8.66,8.66,0,0,0,570.78,63h1.36a9.37,9.37,0,0,1-3.43.65h.47a9.48,9.48,0,0,0,9.48-9.48V31.26a9.49,9.49,0,0,0-9.48-9.48Z" transform="translate(0 0)"/><path class="cls-12" d="M508.37,21.78h-.47a9.4,9.4,0,0,1,4.2,1H510a8.68,8.68,0,0,0-8.66,8.66V54.37A8.67,8.67,0,0,0,510,63h1.36a9.32,9.32,0,0,1-3.42.65h.46a9.49,9.49,0,0,0,9.49-9.48V31.26a9.5,9.5,0,0,0-9.49-9.48Z" transform="translate(0 0)"/><path class="cls-15" d="M508.37,21.78h-.47a9.4,9.4,0,0,1,4.2,1H510a8.68,8.68,0,0,0-8.66,8.66V54.37A8.67,8.67,0,0,0,510,63h1.36a9.32,9.32,0,0,1-3.42.65h.46a9.49,9.49,0,0,0,9.49-9.48V31.26a9.5,9.5,0,0,0-9.49-9.48Z" transform="translate(0 0)"/><path class="cls-12" d="M510.06,63.11a8.68,8.68,0,0,1-8.66-8.66v-23a8.68,8.68,0,0,1,8.66-8.66h2.13a9.4,9.4,0,0,0-4.2-1H485.05a9.5,9.5,0,0,0-9.48,9.48V54.27a9.5,9.5,0,0,0,9.48,9.49H508a9.32,9.32,0,0,0,3.42-.65Z" transform="translate(0 0)"/><path class="cls-8" d="M570.87,63.11a8.67,8.67,0,0,1-8.66-8.66v-23a8.67,8.67,0,0,1,8.66-8.66H573a9.4,9.4,0,0,0-4.2-1H545.86a9.49,9.49,0,0,0-9.48,9.48V54.27a9.5,9.5,0,0,0,9.48,9.49H568.8a9.33,9.33,0,0,0,3.43-.65Z" transform="translate(0 0)"/><path class="cls-2" d="M569.16,75.79l-8-12L555.25,55a3.27,3.27,0,0,0-5.84.84l-2.48,8-5,16a3.28,3.28,0,0,0,4.85,3.75l1.77-1.09a2.45,2.45,0,0,1,3.37.8,2.39,2.39,0,0,1,.36,1.06l1.62,17.67a3.29,3.29,0,0,0,3.25,3l.3,0,2.48-.22a3.26,3.26,0,0,0,3-3.55h0l-1.67-18.24a2.45,2.45,0,0,1,3.47-2.45l.36.16a3.27,3.27,0,0,0,4.09-4.79Z" transform="translate(0 0)"/><path class="cls-5" d="M510.06,63.11a8.68,8.68,0,0,1-8.66-8.66v-23a8.68,8.68,0,0,1,8.66-8.66h2.13a9.4,9.4,0,0,0-4.2-1H485.05a9.5,9.5,0,0,0-9.48,9.48V54.27a9.5,9.5,0,0,0,9.48,9.49H508a9.32,9.32,0,0,0,3.42-.65Z" transform="translate(0 0)"/></svg>