<svg id="Capa_1" data-name="Capa 1" xmlns="http://www.w3.org/2000/svg" viewBox="0 0 1000 1000"><defs><style>.cls-1{fill:#e9560a;}.cls-2{fill:#fafafa;stroke:#fff;stroke-miterlimit:10;stroke-width:20px;}</style></defs><g id="Azul_acero" data-name="Azul acero"><rect class="cls-1" width="1000" height="1000"/><g id="Logo"><polyline class="cls-1" points="407.18 503.49 407.18 545.49 333.27 597.57 407.18 649.88 407.18 693.97 267.75 595.89"/><polyline class="cls-1" points="592.82 503.49 592.82 545.49 666.73 597.57 592.82 649.88 592.82 693.97 732.25 595.89"/><path class="cls-1" d="M501.26,368.34q66.43,0,132.86,0a13.66,13.66,0,0,1,10.13,4c20.5,19.6,16.74,13.25,17.11,38.64a77.61,77.61,0,0,1-.17,10.12c-1.27,11-13.17,16.05-21.86,9.19-6.86-5.4-13.51-11.1-19.81-17.13a17,17,0,0,0-12.74-5q-72.69.15-145.37,0c-22.64,0-45.28.1-67.92,0a14.46,14.46,0,0,0-10.71,4c-6.71,6.18-13.77,12-20.82,17.79-8.08,6.67-19.65,2.66-20.87-7.72a155.83,155.83,0,0,1,0-30.92,12.41,12.41,0,0,1,4.5-8,120.43,120.43,0,0,0,10.73-10.2c3.19-3.65,6.86-4.86,11.53-4.85q66.72.12,133.45,0Z" transform="translate(0 0)"/><path class="cls-1" d="M494.65,155.79l-35.06,19.54a10.51,10.51,0,0,0-4.91,8.89V205.3a10.5,10.5,0,0,0,10.51,10.5h69.92a10.5,10.5,0,0,0,10.51-10.5V184.53a10.51,10.51,0,0,0-5.31-9.13l-34.87-19.85A10.48,10.48,0,0,0,494.65,155.79Z" transform="translate(0 0)"/><path class="cls-1" d="M509.24,420.81v346.9l-7.63,10.49a1.9,1.9,0,0,1-3.12-.07l-6.89-10.42V420.81H455.48v346.9L500,845.83l45.36-78.12V420.81Z" transform="translate(0 0)"/><rect class="cls-1" x="474" y="275" width="53" height="34" rx="10.5"/><rect class="cls-1" x="474" y="228" width="53" height="34" rx="10.5"/><rect class="cls-1" x="474" y="322" width="53" height="34" rx="10.5"/></g></g><path class="cls-2" d="M591.81,717.12,575.94,748l-75.65,147.3h-1.16L423.48,748l-15.84-30.85-12-23.32a36,36,0,0,0-32-19.52h-18l28.4,53.83,16,30.35,94,178.06h31.28l94-178.12L625.42,728Z" transform="translate(0 0)"/><path class="cls-2" d="M625.51,272l-16-30.45L515.93,63.42H483.49l-93.55,178L374,271.8l33.51,11,15.74-30.87L499.13,103h1.16L576.2,251.91,592,282.84l12.52,24.57a33.44,33.44,0,0,0,29.79,18.25h19.47Z" transform="translate(0 0)"/><path class="cls-2" d="M764.94,392.78,733.77,377.1,722.6,409.9l31.66,15.49L905,499.15v1.13L754.1,574.12l-31.66,15.49-22.55,11a38,38,0,0,0-21.28,34.09v15.31l55-27.64,31.2-15.68L947.29,515V484.45Z" transform="translate(0 0)"/><path class="cls-2" d="M245.81,425.07l31.63-15.35,23.41-11.37a36.47,36.47,0,0,0,20.54-32.8V349.38L266.2,377l-31.1,15.57L52.71,483.89v31.66l182.55,91.38,31.11,15.58,11.24-32.71L246,574.45,93.24,500.28v-1.13Z" transform="translate(0 0)"/><path class="cls-2" d="M764.79,606.73,754.1,574.12l-31.66,15.49,11.15,32.8L787,779.34l-.82.8L625.42,728l-33.61-10.88-23-7.46a40,40,0,0,0-40.24,9.41l-11,10.72L575.94,748l33.41,10.44L805.43,819.7l22.11-21.58Z" transform="translate(0 0)"/><path class="cls-2" d="M423.24,251.9l-33.3-10.46L195.39,180.3l-22.93,22.38,62.64,189.9,10.71,32.49,31.63-15.35L266.2,377l-54-157.15.81-.79L374,271.8l33.51,11,24.7,8.09a38.81,38.81,0,0,0,39.21-9.11l11.41-11.13Z" transform="translate(0 0)"/><path class="cls-2" d="M805.43,180.3,609.51,241.5,576.2,251.91,592,282.84,625.51,272l160.68-52.09.82.8L733.77,377.1,722.6,409.9l-8.76,25.74A32.83,32.83,0,0,0,722,469.72l13.43,13.11,18.84-57.44,10.68-32.61,62.6-190.91Z" transform="translate(0 0)"/><path class="cls-2" d="M407.64,717.18l-33.55,11L213,780.93l-.81-.79,54.19-157.63,11.24-32.71,8.9-25.88a32.7,32.7,0,0,0-8.07-34L265,516.77l-19,57.68-10.72,32.48-62.8,190.39,22.93,22.38L390.1,758.52,423.48,748Z" transform="translate(0 0)"/></svg>