<svg id="Capa_1" data-name="Capa 1" xmlns="http://www.w3.org/2000/svg" viewBox="0 0 1000 1000"><defs><style>.cls-1{fill:#e9560a;}.cls-2{fill:#f47b42;}.cls-3{fill:#f8f4f0;}</style></defs><g id="Azul_acero" data-name="Azul acero"><rect class="cls-1" width="1000" height="1000"/><g id="Logo"><polyline class="cls-2" points="407.18 503.49 407.18 545.49 333.27 597.57 407.18 649.88 407.18 693.97 267.75 595.89"/><polyline class="cls-2" points="592.82 503.49 592.82 545.49 666.73 597.57 592.82 649.88 592.82 693.97 732.25 595.89"/><path class="cls-3" d="M501.26,368.34q66.43,0,132.86,0a13.66,13.66,0,0,1,10.13,4c20.5,19.6,16.74,13.25,17.11,38.64a77.61,77.61,0,0,1-.17,10.12c-1.27,11-13.17,16.05-21.86,9.19-6.86-5.4-13.51-11.1-19.81-17.13a17,17,0,0,0-12.74-5q-72.69.15-145.37,0c-22.64,0-45.28.1-67.92,0a14.46,14.46,0,0,0-10.71,4c-6.71,6.18-13.77,12-20.82,17.79-8.08,6.67-19.65,2.66-20.87-7.72a155.83,155.83,0,0,1,0-30.92,12.41,12.41,0,0,1,4.5-8,120.43,120.43,0,0,0,10.73-10.2c3.19-3.65,6.86-4.86,11.53-4.85q66.72.12,133.45,0Z" transform="translate(0 0)"/><path class="cls-3" d="M494.65,155.79l-35.06,19.54a10.51,10.51,0,0,0-4.91,8.89V205.3a10.5,10.5,0,0,0,10.51,10.5h69.92a10.5,10.5,0,0,0,10.51-10.5V184.53a10.51,10.51,0,0,0-5.31-9.13l-34.87-19.85A10.48,10.48,0,0,0,494.65,155.79Z" transform="translate(0 0)"/><path class="cls-3" d="M509.24,420.81v346.9l-7.63,10.49a1.9,1.9,0,0,1-3.12-.07l-6.89-10.42V420.81H455.48v346.9L500,845.83l45.36-78.12V420.81Z" transform="translate(0 0)"/><rect class="cls-3" x="474" y="275" width="53" height="34" rx="10.5"/><rect class="cls-3" x="474" y="228" width="53" height="34" rx="10.5"/><rect class="cls-3" x="474" y="322" width="53" height="34" rx="10.5"/></g></g></svg>