<svg id="Capa_1" data-name="Capa 1" xmlns="http://www.w3.org/2000/svg" viewBox="0 0 543.19 808.83"><defs><style>.cls-1{fill:#fff;}</style></defs><g id="Azul_acero" data-name="Azul acero"><g id="Logo"><polyline class="cls-1" points="163.06 408.5 163.06 457.61 76.62 518.51 163.06 579.69 163.06 631.24 0 516.54"/><polyline class="cls-1" points="380.13 408.5 380.13 457.61 466.57 518.51 380.13 579.69 380.13 631.24 543.19 516.54"/><path class="cls-1" d="M501.47,346q77.68,0,155.37-.05a15.94,15.94,0,0,1,11.84,4.68c24,22.91,19.58,15.5,20,45.18a93.43,93.43,0,0,1-.2,11.84c-1.49,12.81-15.41,18.76-25.57,10.75-8-6.32-15.8-13-23.16-20a19.92,19.92,0,0,0-14.9-5.84q-85,.18-170,.05c-26.48,0-52.95.13-79.43,0a16.91,16.91,0,0,0-12.51,4.66c-7.85,7.23-16.11,14-24.35,20.81-9.46,7.8-23,3.12-24.41-9-1.4-12-1-24.12-.05-36.16.3-3.61,2.39-6.82,5.26-9.39,4.31-3.85,8.77-7.59,12.55-11.92s8-5.69,13.49-5.68q78,.15,156.05.06Z" transform="translate(-228.41 -95.59)"/><path class="cls-1" d="M493.75,97.47l-41,22.86A12.26,12.26,0,0,0,447,130.72v24.65a12.28,12.28,0,0,0,12.28,12.29h81.77a12.29,12.29,0,0,0,12.29-12.29V131.08a12.27,12.27,0,0,0-6.21-10.67L506.37,97.19A12.29,12.29,0,0,0,493.75,97.47Z" transform="translate(-228.41 -95.59)"/><path class="cls-1" d="M510.8,407.39V813.06l-8.92,12.27a2.22,2.22,0,0,1-3.64-.08l-8.06-12.19V407.39H447.94V813.06L500,904.41l53-91.35V407.39Z" transform="translate(-228.41 -95.59)"/><rect class="cls-1" x="241.19" y="141.3" width="61.98" height="39.76" rx="10.5"/><rect class="cls-1" x="241.19" y="86.34" width="61.98" height="39.76" rx="10.5"/><rect class="cls-1" x="241.19" y="196.26" width="61.98" height="39.76" rx="10.5"/></g></g></svg>