<svg id="Capa_1" data-name="Capa 1" xmlns="http://www.w3.org/2000/svg" viewBox="0 0 464.5 691.66"><defs><style>.cls-1{fill:#e9560a;}</style></defs><g id="Azul_acero" data-name="Azul acero"><g id="Logo"><polyline class="cls-1" points="139.43 349.32 139.43 391.32 65.52 443.39 139.43 495.71 139.43 539.79 0 441.71"/><polyline class="cls-1" points="325.07 349.32 325.07 391.32 398.98 443.39 325.07 495.71 325.07 539.79 464.5 441.71"/><path class="cls-1" d="M501.26,368.34q66.43,0,132.86,0a13.66,13.66,0,0,1,10.13,4c20.5,19.6,16.74,13.25,17.11,38.64a77.61,77.61,0,0,1-.17,10.12c-1.27,11-13.17,16.05-21.86,9.19-6.86-5.4-13.51-11.1-19.81-17.13a17,17,0,0,0-12.74-5q-72.69.15-145.37,0c-22.64,0-45.28.1-67.92,0a14.46,14.46,0,0,0-10.71,4c-6.71,6.18-13.77,12-20.82,17.79-8.08,6.67-19.65,2.66-20.87-7.72a155.83,155.83,0,0,1,0-30.92,12.41,12.41,0,0,1,4.5-8,120.43,120.43,0,0,0,10.73-10.2c3.19-3.65,6.86-4.86,11.53-4.85q66.72.12,133.45,0Z" transform="translate(-267.75 -154.17)"/><path class="cls-1" d="M494.65,155.79l-35.06,19.54a10.51,10.51,0,0,0-4.91,8.89V205.3a10.5,10.5,0,0,0,10.51,10.5h69.92a10.5,10.5,0,0,0,10.51-10.5V184.53a10.51,10.51,0,0,0-5.31-9.13l-34.87-19.85A10.48,10.48,0,0,0,494.65,155.79Z" transform="translate(-267.75 -154.17)"/><path class="cls-1" d="M509.24,420.81v346.9l-7.63,10.49a1.9,1.9,0,0,1-3.12-.07l-6.89-10.42V420.81H455.48v346.9L500,845.83l45.36-78.12V420.81Z" transform="translate(-267.75 -154.17)"/><rect class="cls-1" x="206.25" y="120.83" width="53" height="34" rx="10.5"/><rect class="cls-1" x="206.25" y="73.83" width="53" height="34" rx="10.5"/><rect class="cls-1" x="206.25" y="167.83" width="53" height="34" rx="10.5"/></g></g></svg>