<svg id="Capa_1" data-name="Capa 1" xmlns="http://www.w3.org/2000/svg" viewBox="0 0 654.02 451.84"><defs><style>.cls-1{fill:#090814;}.cls-2{fill:#fff;}.cls-3{fill:#cacaca;}.cls-4{fill:#f47c42;}.cls-5{fill:#f5aa8b;}.cls-6{fill:#f7c8b6;}.cls-7{fill:#e6e6e6;}.cls-8{fill:none;}.cls-9{fill:#e4e4e4;}</style></defs><g id="Group_266" data-name="Group 266"><path id="Path_4661-831" data-name="Path 4661-831" class="cls-1" d="M642.88,0H11.14A11.25,11.25,0,0,0,0,11.33v429.2a11.24,11.24,0,0,0,11.14,11.3H642.88A11.24,11.24,0,0,0,654,440.53V11.33A11.25,11.25,0,0,0,642.88,0Z" transform="translate(0 0)"/><path id="Path_4660-832" data-name="Path 4660-832" class="cls-1" d="M550.21,2.24H11.74a9.52,9.52,0,0,0-9.5,9.52V372.13a9.52,9.52,0,0,0,9.5,9.5H550.21a9.51,9.51,0,0,0,9.49-9.5V11.76a9.5,9.5,0,0,0-9.49-9.51Z" transform="translate(0 0)"/><path id="Path_4021-833" data-name="Path 4021-833" class="cls-2" d="M624.21,2.24H11.8A10.82,10.82,0,0,0,1,13.06V422.92a10.82,10.82,0,0,0,10.8,10.8H624.21a10.82,10.82,0,0,0,10.8-10.8V13.06A10.81,10.81,0,0,0,624.22,2.24Z" transform="translate(0 0)"/><path id="Path_4026-834" data-name="Path 4026-834" class="cls-3" d="M605.67,58.72h-573a2.28,2.28,0,1,1,0-4.56h573a2.28,2.28,0,1,1,0,4.56Z" transform="translate(0 0)"/><ellipse id="Ellipse_687" data-name="Ellipse 687" class="cls-4" cx="43.77" cy="28.87" rx="13.35" ry="13.65"/><ellipse id="Ellipse_688" data-name="Ellipse 688" class="cls-5" cx="89.91" cy="28.87" rx="13.35" ry="13.65"/><ellipse id="Ellipse_689" data-name="Ellipse 689" class="cls-6" cx="136.04" cy="28.87" rx="13.35" ry="13.65"/><ellipse id="Ellipse_808" data-name="Ellipse 808" class="cls-7" cx="594.55" cy="28.87" rx="13.35" ry="13.65"/><g id="Group_265" data-name="Group 265"><rect id="Rectangle_946" data-name="Rectangle 946" class="cls-4" x="326.04" y="162.97" width="179.54" height="78.55" rx="24"/><rect id="Rectangle_947" data-name="Rectangle 947" class="cls-7" x="130.01" y="162.97" width="179.54" height="78.55" rx="24"/><g id="Group_263" data-name="Group 263"><path id="Path_4662-835" data-name="Path 4662-835" class="cls-8" d="M388.88,176.44h53.86V230.3H388.88Z" transform="translate(0 0)"/><path id="Path_4663-836" data-name="Path 4663-836" class="cls-2" d="M413.57,223.57a2.24,2.24,0,0,1-2.23-2,15.72,15.72,0,0,0-13.7-13.74,2.24,2.24,0,0,1-2-2.45,2.28,2.28,0,0,1,.32-1,15.71,15.71,0,0,1,11.56-7.69,22.45,22.45,0,0,1,19.41-13.59H427a9,9,0,0,1,9,9v.12a22.44,22.44,0,0,1-13.59,19.42,15.7,15.7,0,0,1-7.73,11.58A2.21,2.21,0,0,1,413.57,223.57Zm-11.76-19.39A20.19,20.19,0,0,1,415,217.37a11.13,11.13,0,0,0,3.06-7.34,2.22,2.22,0,0,1,1.5-2,17.9,17.9,0,0,0,12-15.9,4.49,4.49,0,0,0-4.43-4.43,17.9,17.9,0,0,0-15.89,12,2.26,2.26,0,0,1-2.05,1.5A11.17,11.17,0,0,0,401.81,204.18Z" transform="translate(0 0)"/><path id="Path_4664-837" data-name="Path 4664-837" class="cls-2" d="M397.77,224.68a19.89,19.89,0,0,1-2.31-.14,2.47,2.47,0,0,1-2.19-2,15.55,15.55,0,0,1,1.73-9.55,17.12,17.12,0,0,1,7.16-7,2.65,2.65,0,0,1,3.46.9,2.28,2.28,0,0,1-.79,3.13,1,1,0,0,1-.17.1,11.68,11.68,0,0,0-6.45,9.89,12.79,12.79,0,0,0,10.61-6,2.63,2.63,0,0,1,3.46-.9,2.28,2.28,0,0,1,1.05,3.05,1.4,1.4,0,0,1-.09.17,17.22,17.22,0,0,1-7.53,6.68A18.94,18.94,0,0,1,397.77,224.68Z" transform="translate(0 0)"/><path id="Path_4665-838" data-name="Path 4665-838" class="cls-2" d="M422.58,200.13a3.53,3.53,0,1,1,3.52-3.53A3.52,3.52,0,0,1,422.58,200.13Z" transform="translate(0 0)"/></g></g><path id="Path_2993-839" data-name="Path 2993-839" class="cls-9" d="M239.8,327.1h158a5.16,5.16,0,0,0,0-10.31h-158a5.16,5.16,0,0,0,0,10.31Z" transform="translate(0 0)"/><path id="Path_2995-840" data-name="Path 2995-840" class="cls-9" d="M239.81,353.09h68.48a5.16,5.16,0,0,0,0-10.31H239.81a5.16,5.16,0,1,0,0,10.31Z" transform="translate(0 0)"/></g></svg>